<svg width="512" height="512" viewBox="0 0 512 512" fill="none" xmlns="http://www.w3.org/2000/svg">
<path d="M494.345 79.448H428.587C428.212 79.908 427.809 80.354 427.38 80.783L402.252 105.911L402.233 105.931H485.517V353.103H26.483V105.931H251.786L278.269 79.448H17.655C7.904 79.448 0 87.352 0 97.103V379.586H512V97.103C512 87.352 504.095 79.448 494.345 79.448Z" fill="#464655"/>
<path d="M168.948 297.242L129.754 314.04C128.468 314.591 127.18 314.795 125.954 314.718C122.105 314.474 118.899 311.448 118.321 307.684C118.101 306.254 118.244 304.722 118.9 303.189L130.29 276.612L167.178 190.54L251.786 105.932H26.483V353.104H485.517V105.931H402.233L242.403 265.761L168.948 297.242Z" fill="white"/>
<path d="M0 414.897C0 424.648 7.904 432.552 17.655 432.552H185.379H326.62H494.344C504.094 432.552 511.999 424.648 511.999 414.897V379.587H0V414.897ZM256 392.828C263.313 392.828 269.241 398.757 269.241 406.069C269.241 413.381 263.313 419.31 256 419.31C248.687 419.31 242.759 413.381 242.759 406.069C242.759 398.757 248.687 392.828 256 392.828Z" fill="#BEC8DC"/>
<path d="M177.655 494.345H334.345L328.828 450.207H183.172L177.655 494.345Z" fill="#AFBBD0"/>
<path d="M176.552 494.345C171.677 494.345 167.724 498.298 167.724 503.173C167.724 508.048 171.677 512.001 176.552 512.001H335.449C340.324 512.001 344.277 508.048 344.277 503.173C344.277 498.298 340.324 494.345 335.449 494.345H334.346H177.656H176.552Z" fill="#BEC8DC"/>
<path d="M183.172 450.207H328.828L326.621 432.552H185.379L183.172 450.207Z" fill="#96A5B9"/>
<path d="M256 419.31C263.313 419.31 269.241 413.382 269.241 406.069C269.241 398.756 263.313 392.828 256 392.828C248.687 392.828 242.759 398.756 242.759 406.069C242.759 413.382 248.687 419.31 256 419.31Z" fill="#96A5B9"/>
<path d="M167.179 190.538L204.791 228.15L364.641 68.3L345.835 49.494L327.029 30.688L278.269 79.448L251.786 105.931L167.179 190.538Z" fill="black"/>
<path d="M364.641 68.2991V68.3001L204.791 228.15L242.403 265.761L402.233 105.931L402.253 105.911L364.641 68.2991Z" fill="#01FEEF"/>
<path d="M327.029 30.688L345.835 49.494L327.029 30.688Z" fill="#FFF0BE"/>
<path d="M402.253 105.911L427.381 80.783C427.81 80.354 428.212 79.908 428.588 79.448C434.249 72.514 433.847 62.281 427.381 55.815L402.253 30.687L364.641 68.3L402.253 105.911Z" fill="#FFF0BE"/>
<path d="M118.321 307.682C118.898 311.447 122.105 314.474 125.954 314.716C122.104 314.474 118.898 311.448 118.321 307.682Z" fill="#FFF0BE"/>
<path d="M176.583 293.971L168.948 297.242L242.403 265.761L204.791 228.15L157.777 275.165L176.583 293.971Z" fill="#FFF0BE"/>
<path d="M130.291 276.611L138.97 256.359L157.777 275.165L204.791 228.15L167.179 190.538L130.291 276.61V276.611Z" fill="#FFDC9B"/>
<path d="M157.777 275.165L138.971 256.359L130.291 276.612L118.901 303.189C118.243 304.723 118.102 306.254 118.322 307.684C118.899 311.449 122.106 314.476 125.955 314.718C127.181 314.795 128.469 314.591 129.755 314.04L168.949 297.242L176.583 293.97L157.777 275.165Z" fill="black"/>
<path d="M364.641 68.3L402.253 30.688L376.462 4.896C369.933 -1.632 359.349 -1.632 352.82 4.896L327.029 30.688L345.835 49.494L364.641 68.3Z" fill="#FFDC9B"/>
</svg>
